<svg width="35" height="38" viewBox="0 0 35 38" fill="none" xmlns="http://www.w3.org/2000/svg">
<g id="Standard Collection 27">
<path id="Vector" d="M31.1473 14.4231L31.1255 14.4014C31.1238 14.4001 31.1224 14.3985 31.1215 14.3966L17.5006 0.775391L3.87983 14.3963C3.87826 14.3979 3.8758 14.401 3.8758 14.401L3.85333 14.4228C1.77053 16.5173 0.447586 19.2479 0.0948177 22.1806C-0.25795 25.1133 0.379698 28.0798 1.90639 30.6085C3.43309 33.1373 5.76122 35.0831 8.52069 36.1366C11.2802 37.1901 14.3126 37.2911 17.136 36.4231C17.3735 36.3505 17.6275 36.3505 17.8651 36.4231C20.6882 37.2907 23.7205 37.1898 26.4798 36.1361C29.2391 35.0824 31.567 33.1367 33.0936 30.6082C34.6202 28.0796 35.2579 25.1133 34.9053 22.1808C34.5526 19.2482 33.2299 16.5176 31.1473 14.4231ZM8.7232 23.4052C8.65689 23.4715 8.6043 23.5503 8.56844 23.6368C8.53257 23.7234 8.5141 23.8162 8.51412 23.91C8.53835 26.314 9.21776 28.6658 10.4792 30.7125C10.5079 30.7589 10.5211 30.8132 10.517 30.8676C10.513 30.9219 10.4918 30.9736 10.4566 31.0153C10.4213 31.057 10.3738 31.0864 10.3209 31.0994C10.2679 31.1124 10.2122 31.1084 10.1616 31.0878C9.21332 30.6889 8.35182 30.109 7.62531 29.3807C6.13646 27.8916 5.29946 25.8724 5.2981 23.7666C5.29675 21.6609 6.13117 19.6406 7.61812 18.1497L17.5006 8.26812L27.3826 18.1497C28.8698 19.6404 29.7045 21.6607 29.703 23.7666C29.7018 25.8724 28.8647 27.8916 27.3757 29.3807C26.6492 30.109 25.7877 30.6889 24.8396 31.0878C24.7889 31.1084 24.7332 31.1124 24.6802 31.0994C24.6273 31.0864 24.5798 31.0568 24.5445 31.0153C24.5093 30.9736 24.488 30.9219 24.484 30.8674C24.4799 30.8131 24.4931 30.7587 24.5218 30.7123C25.7835 28.6658 26.4633 26.314 26.4879 23.91C26.4879 23.8162 26.4692 23.7234 26.4332 23.6367C26.3971 23.55 26.3444 23.4713 26.2779 23.405L21.6037 18.4471C21.5571 18.4083 21.4985 18.387 21.4378 18.387C21.3773 18.387 21.3186 18.4083 21.2721 18.4471C21.2255 18.4858 21.1942 18.5398 21.1833 18.5994C21.1724 18.6591 21.1828 18.7204 21.2127 18.7732C23.0281 22.0584 21.467 26.7771 18.8637 29.3807L18.85 29.3945C18.4907 29.7499 18.0056 29.9492 17.5002 29.949C16.9948 29.9488 16.5098 29.7492 16.1508 29.3936L16.1382 29.3807C13.5339 26.7771 11.9736 22.0589 13.7893 18.7739C13.8192 18.7211 13.8296 18.6598 13.8187 18.6001C13.8079 18.5405 13.7764 18.4865 13.7299 18.4478C13.6834 18.409 13.6247 18.3877 13.5642 18.3877C13.5036 18.3877 13.4449 18.409 13.3984 18.4478L8.7232 23.4052Z" fill="#F53838"/>
</g>
</svg>
